<svg width="17" height="17" viewBox="0 0 17 17" fill="none" xmlns="http://www.w3.org/2000/svg">
<path d="M1 15.6119H16M1 15.6119V11.8619L8.5 4.36193M1 15.6119H4.75L12.25 8.11191M8.5 4.36193L11.1893 1.67256L11.191 1.67096C11.5611 1.30076 11.7466 1.11534 11.9603 1.04589C12.1487 0.984705 12.3514 0.984705 12.5398 1.04589C12.7533 1.11529 12.9386 1.3005 13.3082 1.67018L14.9393 3.30124C15.3106 3.67251 15.4963 3.85823 15.5658 4.07229C15.6271 4.26057 15.627 4.46339 15.5658 4.65169C15.4964 4.86559 15.3109 5.05103 14.9402 5.42176L14.9393 5.42256L12.25 8.11191M8.5 4.36193L12.25 8.11191" stroke="#002765" stroke-width="2" stroke-linecap="round" stroke-linejoin="round"/>
</svg>
